# xmcd CD database file
#
# Track frame offsets:
#	150
#	23830
#	48727
#	65075
#	88675
#	104120
#	117617
#	135840
#	164330
#	195032
#	212650
#	230550
#	247195
#	267172
#	284762
#	312547
#	327397
#	344985
#
# Disc length: 4800 seconds
#
# Revision: 0
# Processed by: cddbd v1.5.1PL0 Copyright (c) Steve Scherf et al.
# Submitted via: CDex 1.51
#
DISCID=2512be12
DTITLE=ROY AYERS - Cafe Apres-midi
DYEAR=1900
DGENRE=Jazz
TTITLE0=INTRO THE RIVER NIGER
TTITLE1=DAY DREAMING
TTITLE2=MYSTIC VOYAGE
TTITLE3=FEEL LIKE MAKING LOVE
TTITLE4=THE WAY OF THE WORLD
TTITLE5=VIBRATIONS
TTITLE6=TIME AND SPACE
TTITLE7=THE THIRD EYE
TTITLE8=CAN'T YOU SEE ME
TTITLE9=SEARCHING
TTITLE10=EVERYBODY LOVES THE SUNSHINE
TTITLE11=WE LIVE IN BROOKLYN BABY
TTITLE12=THE BOOGIE BACK
TTITLE13=THE BLACK FIVE
TTITLE14=AIN'T NO SUNSHINE
TTITLE15=SWEET TEARS
TTITLE16=RUNNING AWAY
TTITLE17=AND DON'T YOU SAY NO
EXTD=
EXTT0=
EXTT1=
EXTT2=
EXTT3=
EXTT4=
EXTT5=
EXTT6=
EXTT7=
EXTT8=
EXTT9=
EXTT10=
EXTT11=
EXTT12=
EXTT13=
EXTT14=
EXTT15=
EXTT16=
EXTT17=
PLAYORDER=
